0
SECTION
2
HEADER
9
$INSUNITS
70
4
9
$ACADVER
1
AC1014
9
$HANDSEED
5
FFFF
0
ENDSEC
0
SECTION
2
TABLES
0
TABLE
2
VPORT
5
8
100
AcDbSymbolTable
0
ENDTAB
0
TABLE
2
LTYPE
5
5
100
AcDbSymbolTable
0
LTYPE
5
14
100
AcDbSymbolTableRecord
100
AcDbLinetypeTableRecord
2
BYBLOCK
70
0
0
LTYPE
5
15
100
AcDbSymbolTableRecord
100
AcDbLinetypeTableRecord
2
BYLAYER
70
0
0
ENDTAB
0
TABLE
2
LAYER
5
2
100
AcDbSymbolTable
70
2
0
LAYER
5
50
100
AcDbSymbolTableRecord
100
AcDbLayerTableRecord
2
0
70
0
6
CONTINUOUS
0
ENDTAB
0
TABLE
2
STYLE
5
3
100
AcDbSymbolTable
70
1
0
STYLE
5
11
100
AcDbSymbolTableRecord
100
AcDbTextStyleTableRecord
2
STANDARD
70
0
0
ENDTAB
0
TABLE
2
VIEW
5
6
100
AcDbSymbolTable
70
0
0
ENDTAB
0
TABLE
2
UCS
5
7
100
AcDbSymbolTable
70
0
0
ENDTAB
0
TABLE
2
APPID
5
9
100
AcDbSymbolTable
70
2
0
APPID
5
12
100
AcDbSymbolTableRecord
100
AcDbRegAppTableRecord
2
ACAD
70
0
0
ENDTAB
0
TABLE
2
DIMSTYLE
5
A
100
AcDbSymbolTable
70
1
0
ENDTAB
0
TABLE
2
BLOCK_RECORD
5
1
100
AcDbSymbolTable
70
1
0
BLOCK_RECORD
5
1F
100
AcDbSymbolTableRecord
100
AcDbBlockTableRecord
2
*MODEL_SPACE
0
BLOCK_RECORD
5
1B
100
AcDbSymbolTableRecord
100
AcDbBlockTableRecord
2
*PAPER_SPACE
0
ENDTAB
0
ENDSEC
0
SECTION
2
BLOCKS
0
BLOCK
5
20
100
AcDbEntity
100
AcDbBlockBegin
2
*MODEL_SPACE
0
ENDBLK
5
21
100
AcDbEntity
100
AcDbBlockEnd
0
BLOCK
5
1C
100
AcDbEntity
100
AcDbBlockBegin
2
*PAPER_SPACE
0
ENDBLK
5
1D
100
AcDbEntity
100
AcDbBlockEnd
0
ENDSEC
0
SECTION
2
ENTITIES
0
LINE
5
100
100
AcDbEntity
8
0
100
AcDbLine
10
-21.059330664178258
20
5.5266257360850464
30
0
11
-19.797408462949527
21
14.521313767009721
31
0
0
SPLINE
5
101
100
AcDbEntity
8
0
100
AcDbSpline
70
4
71
3
72
8
73
4
74
0
42
0.000000001
43
0.0000000001
44
0.0000000001
40
0
40
0
40
0
40
0
40
1
40
1
40
1
40
1
41
1
41
1
41
1
41
1
10
-19.797408462949527
20
14.521313767009721
30
0
10
-19.778422791710142
20
14.656639242675363
30
0
10
-19.662650683396606
20
14.757302845558034
30
0
10
-19.526000060727512
20
14.757302845558034
30
0
0
LINE
5
102
100
AcDbEntity
8
0
100
AcDbLine
10
-19.526000060727512
20
14.757302845558034
30
0
11
-17.676151561247028
21
14.757302845558034
31
0
0
SPLINE
5
103
100
AcDbEntity
8
0
100
AcDbSpline
70
4
71
3
72
8
73
4
74
0
42
0.000000001
43
0.0000000001
44
0.0000000001
40
0
40
0
40
0
40
0
40
1
40
1
40
1
40
1
41
1
41
1
41
1
41
1
10
-17.676151561247032
20
14.757302845558034
30
0
10
-17.524788931767233
20
14.757302845558034
30
0
10
-17.402085023911585
20
14.634598937702382
30
0
10
-17.402085023911585
20
14.483236308222585
30
0
0
LINE
5
104
100
AcDbEntity
8
0
100
AcDbLine
10
-17.402085023911585
20
14.483236308222585
30
0
11
-17.402085023911585
21
13.62188448309416
31
0
0
SPLINE
5
105
100
AcDbEntity
8
0
100
AcDbSpline
70
4
71
3
72
8
73
4
74
0
42
0.000000001
43
0.0000000001
44
0.0000000001
40
0
40
0
40
0
40
0
40
1
40
1
40
1
40
1
41
1
41
1
41
1
41
1
10
-17.402085023911585
20
13.62188448309416
30
0
10
-17.402085023911585
20
13.470521330873929
30
0
10
-17.279381638796366
20
13.347817945758713
30
0
10
-17.128018486576135
20
13.347817945758713
30
0
0
LINE
5
106
100
AcDbEntity
8
0
100
AcDbLine
10
-17.128018486576135
20
13.347817945758713
30
0
11
-15.313937194529039
21
13.347817945758713
31
0
0
SPLINE
5
107
100
AcDbEntity
8
0
100
AcDbSpline
70
4
71
3
72
8
73
4
74
0
42
0.000000001
43
0.0000000001
44
0.0000000001
40
0
40
0
40
0
40
0
40
1
40
1
40
1
40
1
41
1
41
1
41
1
41
1
10
-15.313937194529037
20
13.347817945758713
30
0
10
-15.162574042308808
20
13.347817945758713
30
0
10
-15.039870657193593
20
13.470521330873929
30
0
10
-15.039870657193593
20
13.62188448309416
30
0
0
LINE
5
108
100
AcDbEntity
8
0
100
AcDbLine
10
-15.039870657193593
20
13.62188448309416
30
0
11
-15.039870657193593
21
14.483236308222585
31
0
0
SPLINE
5
109
100
AcDbEntity
8
0
100
AcDbSpline
70
4
71
3
72
8
73
4
74
0
42
0.000000001
43
0.0000000001
44
0.0000000001
40
0
40
0
40
0
40
0
40
1
40
1
40
1
40
1
41
1
41
1
41
1
41
1
10
-15.039870657193593
20
14.483236308222585
30
0
10
-15.039870657193593
20
14.634598937702382
30
0
10
-14.917166749337941
20
14.757302845558034
30
0
10
-14.765804119858142
20
14.757302845558034
30
0
0
LINE
5
110
100
AcDbEntity
8
0
100
AcDbLine
10
-14.765804119858142
20
14.757302845558034
30
0
11
-13.239511824313199
21
14.757302845558034
31
0
0
SPLINE
5
111
100
AcDbEntity
8
0
100
AcDbSpline
70
4
71
3
72
8
73
4
74
0
42
0.000000001
43
0.0000000001
44
0.0000000001
40
0
40
0
40
0
40
0
40
1
40
1
40
1
40
1
41
1
41
1
41
1
41
1
10
-13.239511824313199
20
14.757302845558034
30
0
10
-13.114721136639885
20
14.757302845558034
30
0
10
-13.005685845686102
20
14.673000495559394
30
0
10
-12.97427123648713
20
14.552228113612122
30
0
0
LINE
5
112
100
AcDbEntity
8
0
100
AcDbLine
10
-12.974271236487132
20
14.552228113612122
30
0
11
-10.274311660828406
21
4.1721958589300883
31
0
0
SPLINE
5
113
100
AcDbEntity
8
0
100
AcDbSpline
70
4
71
3
72
8
73
4
74
0
42
0.000000001
43
0.0000000001
44
0.0000000001
40
0
40
0
40
0
40
0
40
1
40
1
40
1
40
1
41
1
41
1
41
1
41
1
10
-10.274311660828403
20
4.1721958589300883
30
0
10
-10.217157312595926
20
3.9524629624383141
30
0
10
-10.34895272210208
20
3.7280013559689347
30
0
10
-10.568684573112986
20
3.6708470077364588
30
0
0
SPLINE
5
114
100
AcDbEntity
8
0
100
AcDbSpline
70
4
71
3
72
8
73
4
74
0
42
0.000000001
43
0.0000000001
44
0.0000000001
40
0
40
0
40
0
40
0
40
1
40
1
40
1
40
1
41
1
41
1
41
1
41
1
10
-10.568684573112986
20
3.6708470077364588
30
0
10
-10.602478696773385
20
3.6620566045766805
30
0
10
-10.637254526971249
20
3.6576080834723941
30
0
10
-10.672172542567511
20
3.6576080834723941
30
0
0
LINE
5
115
100
AcDbEntity
8
0
100
AcDbLine
10
-10.672172542567511
20
3.6576080834723941
30
0
11
-12.616513955462324
21
3.6576080834723941
31
0
0
SPLINE
5
116
100
AcDbEntity
8
0
100
AcDbSpline
70
4
71
3
72
8
73
4
74
0
42
0.000000001
43
0.0000000001
44
0.0000000001
40
0
40
0
40
0
40
0
40
1
40
1
40
1
40
1
41
1
41
1
41
1
41
1
10
-12.616513955462324
20
3.6576080834723941
30
0
10
-12.843557899682017
20
3.6576080834723941
30
0
10
-13.027613761465497
20
3.841663945255871
30
0
10
-13.027613761465497
20
4.0687078894755668
30
0
0
LINE
5
117
100
AcDbEntity
8
0
100
AcDbLine
10
-13.027613761465497
20
4.0687078894755659
30
0
11
-13.027613761465497
21
4.9404152026270163
31
0
0
SPLINE
5
118
100
AcDbEntity
8
0
100
AcDbSpline
70
4
71
3
72
8
73
4
74
0
42
0.000000001
43
0.0000000001
44
0.0000000001
40
0
40
0
40
0
40
0
40
1
40
1
40
1
40
1
41
1
41
1
41
1
41
1
10
-13.027613761465497
20
4.9404152026270145
30
0
10
-13.027613761465497
20
5.0917778321068123
30
0
10
-13.150316623840279
20
5.2144817399624639
30
0
10
-13.301680298800942
20
5.2144817399624639
30
0
0
LINE
5
119
100
AcDbEntity
8
0
100
AcDbLine
10
-13.301680298800942
20
5.2144817399624639
30
0
11
-20.787922131271131
21
5.2144817399624639
31
0
0
SPLINE
5
120
100
AcDbEntity
8
0
100
AcDbSpline
70
4
71
3
72
8
73
4
74
0
42
0.000000001
43
0.0000000001
44
0.0000000001
40
0
40
0
40
0
40
0
40
1
40
1
40
1
40
1
41
1
41
1
41
1
41
1
10
-20.787922131271131
20
5.2144817399624639
30
0
10
-20.939285022121151
20
5.2144817399624639
30
0
10
-21.06198879929169
20
5.3371846023372473
30
0
10
-21.06198879929169
20
5.4885482772979106
30
0
0
SPLINE
5
121
100
AcDbEntity
8
0
100
AcDbSpline
70
4
71
3
72
8
73
4
74
0
42
0.000000001
43
0.0000000001
44
0.0000000001
40
0
40
0
40
0
40
0
40
1
40
1
40
1
40
1
41
1
41
1
41
1
41
1
10
-21.06198879929169
20
5.4885482772979106
30
0
10
-21.06198879929169
20
5.5012864162249722
30
0
10
-21.061100532607032
20
5.5140099184198421
30
0
10
-21.059330664178258
20
5.5266257360850464
30
0
0
SPLINE
5
122
100
AcDbEntity
8
0
100
AcDbSpline
70
4
71
3
72
8
73
4
74
0
42
0.000000001
43
0.0000000001
44
0.0000000001
40
0
40
0
40
0
40
0
40
1
40
1
40
1
40
1
41
1
41
1
41
1
41
1
10
-1.5809929001741876
20
3.2465082774692213
30
0
10
-1.872044319732963
20
3.2465082774692213
30
0
10
-2.1079905335655806
20
3.009537492383437
30
0
10
-2.1079905335655806
20
2.7172189500095305
30
0
0
LINE
5
123
100
AcDbEntity
8
0
100
AcDbLine
10
-2.1079905335655806
20
2.7172189500095305
30
0
11
-2.1079905335655806
21
2.2932430016043832
31
0
0
SPLINE
5
124
100
AcDbEntity
8
0
100
AcDbSpline
70
4
71
3
72
8
73
4
74
0
42
0.000000001
43
0.0000000001
44
0.0000000001
40
0
40
0
40
0
40
0
40
1
40
1
40
1
40
1
41
1
41
1
41
1
41
1
10
-2.1079905335655806
20
2.2932430016043841
30
0
10
-2.1079905335655806
20
2.0009244592304771
30
0
10
-2.343934656436462
20
1.7639536741446935
30
0
10
-2.6349881669569779
20
1.7639536741446935
30
0
0
LINE
5
125
100
AcDbEntity
8
0
100
AcDbLine
10
-2.6349881669569775
20
1.7639536741446935
30
0
11
-5.1821413040536468
21
1.7639536741446935
31
0
0
SPLINE
5
126
100
AcDbEntity
8
0
100
AcDbSpline
70
4
71
3
72
8
73
4
74
0
42
0.000000001
43
0.0000000001
44
0.0000000001
40
0
40
0
40
0
40
0
40
1
40
1
40
1
40
1
41
1
41
1
41
1
41
1
10
-5.1821413040536459
20
1.7639536741446935
30
0
10
-5.4731948145741613
20
1.7639536741446935
30
0
10
-5.7091389374450427
20
2.0009244592304771
30
0
10
-5.7091389374450427
20
2.2932430016043841
30
0
0
LINE
5
127
100
AcDbEntity
8
0
100
AcDbLine
10
-5.7091389374450419
20
2.2932430016043841
30
0
11
-5.7091389374450427
21
2.7172189500095314
31
0
0
SPLINE
5
128
100
AcDbEntity
8
0
100
AcDbSpline
70
4
71
3
72
8
73
4
74
0
42
0.000000001
43
0.0000000001
44
0.0000000001
40
0
40
0
40
0
40
0
40
1
40
1
40
1
40
1
41
1
41
1
41
1
41
1
10
-5.7091389374450427
20
2.7172189500095305
30
0
10
-5.7091389374450427
20
3.009537492383437
30
0
10
-5.9450841057967896
20
3.2465082774692213
30
0
10
-6.236136570836436
20
3.2465082774692213
30
0
0
LINE
5
129
100
AcDbEntity
8
0
100
AcDbLine
10
-6.236136570836436
20
3.2465082774692213
30
0
11
-9.1346225090082385
21
3.2465082774692213
31
0
0
SPLINE
5
130
100
AcDbEntity
8
0
100
AcDbSpline
70
4
71
3
72
8
73
4
74
0
42
0.000000001
43
0.0000000001
44
0.0000000001
40
0
40
0
40
0
40
0
40
1
40
1
40
1
40
1
41
1
41
1
41
1
41
1
10
-9.1346225090082385
20
3.2465082774692213
30
0
10
-9.4256749740478831
20
3.2465082774692213
30
0
10
-9.6616201423996344
20
3.009537492383437
30
0
10
-9.6616201423996344
20
2.7172189500095305
30
0
0
LINE
5
131
100
AcDbEntity
8
0
100
AcDbLine
10
-9.6616201423996344
20
2.7172189500095305
30
0
11
-9.6616201423996344
21
2.2932430016043832
31
0
0
SPLINE
5
132
100
AcDbEntity
8
0
100
AcDbSpline
70
4
71
3
72
8
73
4
74
0
42
0.000000001
43
0.0000000001
44
0.0000000001
40
0
40
0
40
0
40
0
40
1
40
1
40
1
40
1
41
1
41
1
41
1
41
1
10
-9.6616201423996344
20
2.2932430016043841
30
0
10
-9.6616201423996344
20
2.0009244592304771
30
0
10
-9.8975642652705158
20
1.7639536741446935
30
0
10
-10.188616730310155
20
1.7639536741446935
30
0
0
LINE
5
133
100
AcDbEntity
8
0
100
AcDbLine
10
-10.188616730310155
20
1.7639536741446935
30
0
11
-12.999269729583393
21
1.7639536741446935
31
0
0
SPLINE
5
134
100
AcDbEntity
8
0
100
AcDbSpline
70
4
71
3
72
8
73
4
74
0
42
0.000000001
43
0.0000000001
44
0.0000000001
40
0
40
0
40
0
40
0
40
1
40
1
40
1
40
1
41
1
41
1
41
1
41
1
10
-12.999269729583393
20
1.7639536741446935
30
0
10
-13.290322194623039
20
1.7639536741446935
30
0
10
-13.52626736297479
20
2.0009244592304771
30
0
10
-13.52626736297479
20
2.2932430016043841
30
0
0
LINE
5
135
100
AcDbEntity
8
0
100
AcDbLine
10
-13.52626736297479
20
2.2932430016043841
30
0
11
-13.52626736297479
21
2.7172189500095314
31
0
0
SPLINE
5
136
100
AcDbEntity
8
0
100
AcDbSpline
70
4
71
3
72
8
73
4
74
0
42
0.000000001
43
0.0000000001
44
0.0000000001
40
0
40
0
40
0
40
0
40
1
40
1
40
1
40
1
41
1
41
1
41
1
41
1
10
-13.52626736297479
20
2.7172189500095305
30
0
10
-13.52626736297479
20
3.009537492383437
30
0
10
-13.762212531326544
20
3.2465082774692213
30
0
10
-14.053264996366185
20
3.2465082774692213
30
0
0
LINE
5
137
100
AcDbEntity
8
0
100
AcDbLine
10
-14.053264996366185
20
3.2465082774692213
30
0
11
-20.93150638307387
21
3.2465082774692213
31
0
0
SPLINE
5
138
100
AcDbEntity
8
0
100
AcDbSpline
70
4
71
3
72
8
73
4
74
0
42
0.000000001
43
0.0000000001
44
0.0000000001
40
0
40
0
40
0
40
0
40
1
40
1
40
1
40
1
41
1
41
1
41
1
41
1
10
-20.93150638307387
20
3.2465082774692213
30
0
10
-21.194476186449055
20
3.2465082774692213
30
0
10
-21.417201118507304
20
3.0518041930189566
30
0
10
-21.453468065796827
20
2.7902144243929285
30
0
0
LINE
5
139
100
AcDbEntity
8
0
100
AcDbLine
10
-21.453468065796827
20
2.7902144243929285
30
0
11
-23.016553365711701
21
-8.4842011007828457
31
0
0
SPLINE
5
140
100
AcDbEntity
8
0
100
AcDbSpline
70
4
71
3
72
8
73
4
74
0
42
0.000000001
43
0.0000000001
44
0.0000000001
40
0
40
0
40
0
40
0
40
1
40
1
40
1
40
1
41
1
41
1
41
1
41
1
10
-23.016553365711697
20
-8.4842011007828493
30
0
10
-23.019906526349164
20
-8.5083872552426811
30
0
10
-23.021589136177628
20
-8.5327762329914059
30
0
10
-23.021589136177628
20
-8.5571965751662393
30
0
0
SPLINE
5
141
100
AcDbEntity
8
0
100
AcDbSpline
70
4
71
3
72
8
73
4
74
0
42
0.000000001
43
0.0000000001
44
0.0000000001
40
0
40
0
40
0
40
0
40
1
40
1
40
1
40
1
41
1
41
1
41
1
41
1
10
-23.021589136177628
20
-8.5571965751662393
30
0
10
-23.021589136177628
20
-8.8495151175401539
30
0
10
-22.785644343545563
20
-9.0864859026259346
30
0
10
-22.494591698813892
20
-9.0864859026259346
30
0
0
LINE
5
142
100
AcDbEntity
8
0
100
AcDbLine
10
-22.494591698813892
20
-9.0864859026259328
30
0
11
-7.910361273124825
21
-9.0864838116641931
31
0
0
SPLINE
5
143
100
AcDbEntity
8
0
100
AcDbSpline
70
4
71
3
72
8
73
4
74
0
42
0.000000001
43
0.0000000001
44
0.0000000001
40
0
40
0
40
0
40
0
40
1
40
1
40
1
40
1
41
1
41
1
41
1
41
1
10
-7.9103612731248276
20
-9.0864838116641931
30
0
10
-7.7619207626782813
20
-9.0864838116641931
30
0
10
-7.640462022539479
20
-8.9683068359781224
30
0
10
-7.6363982383955653
20
-8.8199217360177151
30
0
0
SPLINE
5
144
100
AcDbEntity
8
0
100
AcDbSpline
70
4
71
3
72
8
73
4
74
0
42
0.000000001
43
0.0000000001
44
0.0000000001
40
0
40
0
40
0
40
0
40
1
40
1
40
1
40
1
41
1
41
1
41
1
41
1
10
-7.6363982383955653
20
-8.8199217360177151
30
0
10
-7.6346982865000124
20
-8.7578285361526511
30
0
10
-7.6327516011190069
20
-8.7055816751266448
30
0
10
-7.6305581822525435
20
-8.6631811529396927
30
0
0
SPLINE
5
145
100
AcDbEntity
8
0
100
AcDbSpline
70
4
71
3
72
8
73
4
74
0
42
0.000000001
43
0.0000000001
44
0.0000000001
40
0
40
0
40
0
40
0
40
1
40
1
40
1
40
1
41
1
41
1
41
1
41
1
10
-7.6305581822525435
20
-8.6631811529396927
30
0
10
-7.4220140220376365
20
-4.6309119843855964
30
0
10
-4.2442383241010049
20
-1.4999999664723873
30
0
10
-1.8951853975046615e-16
20
-1.4999999664723873
30
0
0
SPLINE
5
146
100
AcDbEntity
8
0
100
AcDbSpline
70
4
71
3
72
8
73
4
74
0
42
0.000000001
43
0.0000000001
44
0.0000000001
40
0
40
0
40
0
40
0
40
1
40
1
40
1
40
1
41
1
41
1
41
1
41
1
10
-1.8951853975046615e-16
20
-1.4999999664723873
30
0
10
4.2455075378778773
20
-1.4999999664723873
30
0
10
7.4239136607794629
20
-4.6327833951439183
30
0
10
7.6307453233283713
20
-8.6667985167518715
30
0
0
SPLINE
5
147
100
AcDbEntity
8
0
100
AcDbSpline
70
4
71
3
72
8
73
4
74
0
42
0.000000001
43
0.0000000001
44
0.0000000001
40
0
40
0
40
0
40
0
40
1
40
1
40
1
40
1
41
1
41
1
41
1
41
1
10
7.6307453233283713
20
-8.6667985167518715
30
0
10
7.6328739223808642
20
-8.7083166530840614
30
0
10
7.6347662427565979
20
-8.7593549382236944
30
0
10
7.6364222844555885
20
-8.8199112812090092
30
0
0
SPLINE
5
148
100
AcDbEntity
8
0
100
AcDbSpline
70
4
71
3
72
8
73
4
74
0
42
0.000000001
43
0.0000000001
44
0.0000000001
40
0
40
0
40
0
40
0
40
1
40
1
40
1
40
1
41
1
41
1
41
1
41
1
10
7.6364222844555885
20
-8.8199112812090092
30
0
10
7.6404787502334042
20
-8.9683005630928978
30
0
10
7.7619406268148232
20
-9.0864859026259346
30
0
10
7.9103863646657206
20
-9.0864859026259346
30
0
0
LINE
5
149
100
AcDbEntity
8
0
100
AcDbLine
10
7.9103863646657215
20
-9.0864859026259328
30
0
11
22.494591502786228
21
-9.0864859026259346
31
0
0
SPLINE
5
150
100
AcDbEntity
8
0
100
AcDbSpline
70
4
71
3
72
8
73
4
74
0
42
0.000000001
43
0.0000000001
44
0.0000000001
40
0
40
0
40
0
40
0
40
1
40
1
40
1
40
1
41
1
41
1
41
1
41
1
10
22.494591502786228
20
-9.0864859026259346
30
0
10
22.785645013306745
20
-9.0864859026259346
30
0
10
23.021589136177628
20
-8.8495151175401539
30
0
10
23.021589136177628
20
-8.5571965751662393
30
0
0
SPLINE
5
151
100
AcDbEntity
8
0
100
AcDbSpline
70
4
71
3
72
8
73
4
74
0
42
0.000000001
43
0.0000000001
44
0.0000000001
40
0
40
0
40
0
40
0
40
1
40
1
40
1
40
1
41
1
41
1
41
1
41
1
10
23.021589136177628
20
-8.5571965751662393
30
0
10
23.021589136177628
20
-8.5327762329914059
30
0
10
23.019908002937743
20
-8.5083872552426811
30
0
10
23.016554100304937
20
-8.4842011007828493
30
0
0
LINE
5
152
100
AcDbEntity
8
0
100
AcDbLine
10
23.016554100304944
20
-8.4842011007828493
30
0
11
21.453468196481925
21
2.7902144243929246
31
0
0
SPLINE
5
153
100
AcDbEntity
8
0
100
AcDbSpline
70
4
71
3
72
8
73
4
74
0
42
0.000000001
43
0.0000000001
44
0.0000000001
40
0
40
0
40
0
40
0
40
1
40
1
40
1
40
1
41
1
41
1
41
1
41
1
10
21.453468196481928
20
2.7902144243929285
30
0
10
21.417202556043499
20
3.0518041930189566
30
0
10
21.194477493300141
20
3.2465082774692213
30
0
10
20.931505598963209
20
3.2465082774692213
30
0
0
LINE
5
154
100
AcDbEntity
8
0
100
AcDbLine
10
20.931505598963209
20
3.2465082774692213
30
0
11
14.053266041847049
21
3.2465082774692213
31
0
0
SPLINE
5
155
100
AcDbEntity
8
0
100
AcDbSpline
70
4
71
3
72
8
73
4
74
0
42
0.000000001
43
0.0000000001
44
0.0000000001
40
0
40
0
40
0
40
0
40
1
40
1
40
1
40
1
41
1
41
1
41
1
41
1
10
14.053266041847055
20
3.2465082774692213
30
0
10
13.762212531326538
20
3.2465082774692213
30
0
10
13.526268408455657
20
3.009537492383437
30
0
10
13.526268408455657
20
2.7172189500095305
30
0
0
LINE
5
156
100
AcDbEntity
8
0
100
AcDbLine
10
13.526268408455657
20
2.7172189500095305
30
0
11
13.526268408455657
21
2.2932430016043832
31
0
0
SPLINE
5
157
100
AcDbEntity
8
0
100
AcDbSpline
70
4
71
3
72
8
73
4
74
0
42
0.000000001
43
0.0000000001
44
0.0000000001
40
0
40
0
40
0
40
0
40
1
40
1
40
1
40
1
41
1
41
1
41
1
41
1
10
13.526268408455657
20
2.2932430016043841
30
0
10
13.526268408455657
20
2.0009244592304771
30
0
10
13.290324285584775
20
1.7639536741446935
30
0
10
12.999270775064261
20
1.7639536741446935
30
0
0
LINE
5
158
100
AcDbEntity
8
0
100
AcDbLine
10
12.999270775064261
20
1.7639536741446935
30
0
11
10.188616730310153
21
1.7639536741446935
31
0
0
SPLINE
5
159
100
AcDbEntity
8
0
100
AcDbSpline
70
4
71
3
72
8
73
4
74
0
42
0.000000001
43
0.0000000001
44
0.0000000001
40
0
40
0
40
0
40
0
40
1
40
1
40
1
40
1
41
1
41
1
41
1
41
1
10
10.188616730310153
20
1.7639536741446935
30
0
10
9.8975653107513857
20
1.7639536741446935
30
0
10
9.6616190969187645
20
2.0009244592304771
30
0
10
9.6616190969187645
20
2.2932430016043841
30
0
0
LINE
5
160
100
AcDbEntity
8
0
100
AcDbLine
10
9.6616190969187645
20
2.2932430016043841
30
0
11
9.6616190969187645
21
2.7172189500095314
31
0
0
SPLINE
5
161
100
AcDbEntity
8
0
100
AcDbSpline
70
4
71
3
72
8
73
4
74
0
42
0.000000001
43
0.0000000001
44
0.0000000001
40
0
40
0
40
0
40
0
40
1
40
1
40
1
40
1
41
1
41
1
41
1
41
1
10
9.6616190969187645
20
2.7172189500095305
30
0
10
9.6616190969187645
20
3.009537492383437
30
0
10
9.4256749740478831
20
3.2465082774692213
30
0
10
9.1346214635273668
20
3.2465082774692213
30
0
0
LINE
5
162
100
AcDbEntity
8
0
100
AcDbLine
10
9.1346214635273668
20
3.2465082774692213
30
0
11
6.2361365708364342
21
3.2465082774692213
31
0
0
SPLINE
5
163
100
AcDbEntity
8
0
100
AcDbSpline
70
4
71
3
72
8
73
4
74
0
42
0.000000001
43
0.0000000001
44
0.0000000001
40
0
40
0
40
0
40
0
40
1
40
1
40
1
40
1
41
1
41
1
41
1
41
1
10
6.236136570836436
20
3.2465082774692213
30
0
10
5.9450830603159197
20
3.2465082774692213
30
0
10
5.7091389374450383
20
3.009537492383437
30
0
10
5.7091389374450383
20
2.7172189500095305
30
0
0
LINE
5
164
100
AcDbEntity
8
0
100
AcDbLine
10
5.7091389374450401
20
2.7172189500095305
30
0
11
5.7091389374450383
21
2.2932430016043832
31
0
0
SPLINE
5
165
100
AcDbEntity
8
0
100
AcDbSpline
70
4
71
3
72
8
73
4
74
0
42
0.000000001
43
0.0000000001
44
0.0000000001
40
0
40
0
40
0
40
0
40
1
40
1
40
1
40
1
41
1
41
1
41
1
41
1
10
5.7091389374450383
20
2.2932430016043841
30
0
10
5.7091389374450383
20
2.0009244592304771
30
0
10
5.4731948145741569
20
1.7639536741446935
30
0
10
5.1821413040536415
20
1.7639536741446935
30
0
0
LINE
5
166
100
AcDbEntity
8
0
100
AcDbLine
10
5.1821413040536415
20
1.7639536741446935
30
0
11
2.6349881669569726
21
1.7639536741446935
31
0
0
SPLINE
5
167
100
AcDbEntity
8
0
100
AcDbSpline
70
4
71
3
72
8
73
4
74
0
42
0.000000001
43
0.0000000001
44
0.0000000001
40
0
40
0
40
0
40
0
40
1
40
1
40
1
40
1
41
1
41
1
41
1
41
1
10
2.6349881669569779
20
1.7639536741446935
30
0
10
2.3439346564364567
20
1.7639536741446935
30
0
10
2.1079905335655802
20
2.0009244592304771
30
0
10
2.1079905335655802
20
2.2932430016043841
30
0
0
LINE
5
168
100
AcDbEntity
8
0
100
AcDbLine
10
2.1079905335655802
20
2.2932430016043841
30
0
11
2.1079905335655802
21
2.7172189500095314
31
0
0
SPLINE
5
169
100
AcDbEntity
8
0
100
AcDbSpline
70
4
71
3
72
8
73
4
74
0
42
0.000000001
43
0.0000000001
44
0.0000000001
40
0
40
0
40
0
40
0
40
1
40
1
40
1
40
1
41
1
41
1
41
1
41
1
10
2.1079905335655802
20
2.7172189500095305
30
0
10
2.1079905335655802
20
3.009537492383437
30
0
10
1.8720443197329584
20
3.2465082774692213
30
0
10
1.5809929001741829
20
3.2465082774692213
30
0
0
LINE
5
170
100
AcDbEntity
8
0
100
AcDbLine
10
1.5809929001741829
20
3.2465082774692213
30
0
11
-1.5809929001741876
21
3.2465082774692213
31
0
0
LINE
5
171
100
AcDbEntity
8
0
100
AcDbLine
10
21.059331520276547
20
5.5266257360850464
30
0
11
19.797408926992489
21
14.521313767009721
31
0
0
SPLINE
5
172
100
AcDbEntity
8
0
100
AcDbSpline
70
4
71
3
72
8
73
4
74
0
42
0.000000001
43
0.0000000001
44
0.0000000001
40
0
40
0
40
0
40
0
40
1
40
1
40
1
40
1
41
1
41
1
41
1
41
1
10
19.797408926992482
20
14.521313767009721
30
0
10
19.778422994382883
20
14.656639242675363
30
0
10
19.662650624699126
20
14.757302845558034
30
0
10
19.526000002030031
20
14.757302845558034
30
0
0
LINE
5
173
100
AcDbEntity
8
0
100
AcDbLine
10
19.526000002030031
20
14.757302845558034
30
0
11
17.676153332141077
21
14.757302845558034
31
0
0
SPLINE
5
174
100
AcDbEntity
8
0
100
AcDbSpline
70
4
71
3
72
8
73
4
74
0
42
0.000000001
43
0.0000000001
44
0.0000000001
40
0
40
0
40
0
40
0
40
1
40
1
40
1
40
1
41
1
41
1
41
1
41
1
10
17.676153332141073
20
14.757302845558034
30
0
10
17.524788611699535
20
14.757302845558034
30
0
10
17.402086794805626
20
14.634598937702382
30
0
10
17.402086794805626
20
14.483236308222585
30
0
0
LINE
5
175
100
AcDbEntity
8
0
100
AcDbLine
10
17.402086794805626
20
14.483236308222585
30
0
11
17.402086794805626
21
13.62188448309416
31
0
0
SPLINE
5
176
100
AcDbEntity
8
0
100
AcDbSpline
70
4
71
3
72
8
73
4
74
0
42
0.000000001
43
0.0000000001
44
0.0000000001
40
0
40
0
40
0
40
0
40
1
40
1
40
1
40
1
41
1
41
1
41
1
41
1
10
17.402086794805626
20
13.62188448309416
30
0
10
17.402086794805626
20
13.470521330873929
30
0
10
17.279380795988239
20
13.347817945758713
30
0
10
17.128020257470183
20
13.347817945758713
30
0
0
LINE
5
177
100
AcDbEntity
8
0
100
AcDbLine
10
17.128020257470183
20
13.347817945758713
30
0
11
15.313935306240039
21
13.347817945758713
31
0
0
SPLINE
5
178
100
AcDbEntity
8
0
100
AcDbSpline
70
4
71
3
72
8
73
4
74
0
42
0.000000001
43
0.0000000001
44
0.0000000001
40
0
40
0
40
0
40
0
40
1
40
1
40
1
40
1
41
1
41
1
41
1
41
1
10
15.313935306240033
20
13.347817945758713
30
0
10
15.162574767721985
20
13.347817945758713
30
0
10
15.039868768904586
20
13.470521330873929
30
0
10
15.039868768904586
20
13.62188448309416
30
0
0
LINE
5
179
100
AcDbEntity
8
0
100
AcDbLine
10
15.039868768904586
20
13.62188448309416
30
0
11
15.039868768904586
21
14.483236308222585
31
0
0
SPLINE
5
180
100
AcDbEntity
8
0
100
AcDbSpline
70
4
71
3
72
8
73
4
74
0
42
0.000000001
43
0.0000000001
44
0.0000000001
40
0
40
0
40
0
40
0
40
1
40
1
40
1
40
1
41
1
41
1
41
1
41
1
10
15.039868768904586
20
14.483236308222585
30
0
10
15.039868768904586
20
14.634598937702382
30
0
10
14.917166952010682
20
14.757302845558034
30
0
10
14.765802231569143
20
14.757302845558034
30
0
0
LINE
5
181
100
AcDbEntity
8
0
100
AcDbLine
10
14.765802231569143
20
14.757302845558034
30
0
11
13.23951307246681
21
14.757302845558034
31
0
0
SPLINE
5
182
100
AcDbEntity
8
0
100
AcDbSpline
70
4
71
3
72
8
73
4
74
0
42
0.000000001
43
0.0000000001
44
0.0000000001
40
0
40
0
40
0
40
0
40
1
40
1
40
1
40
1
41
1
41
1
41
1
41
1
10
13.239513072466806
20
14.757302845558034
30
0
10
13.114720293831754
20
14.757302845558034
30
0
10
13.005685002877973
20
14.673000495559394
30
0
10
12.974270393678998
20
14.552228113612122
30
0
0
LINE
5
183
100
AcDbEntity
8
0
100
AcDbLine
10
12.974270393678999
20
14.552228113612122
30
0
11
10.274311863501142
21
4.1721958589300883
31
0
0
SPLINE
5
184
100
AcDbEntity
8
0
100
AcDbSpline
70
4
71
3
72
8
73
4
74
0
42
0.000000001
43
0.0000000001
44
0.0000000001
40
0
40
0
40
0
40
0
40
1
40
1
40
1
40
1
41
1
41
1
41
1
41
1
10
10.274311863501143
20
4.1721958589300883
30
0
10
10.217157515268669
20
3.9524629624383141
30
0
10
10.348950833813078
20
3.7280013559689347
30
0
10
10.568685821266596
20
3.6708470077364588
30
0
0
SPLINE
5
185
100
AcDbEntity
8
0
100
AcDbSpline
70
4
71
3
72
8
73
4
74
0
42
0.000000001
43
0.0000000001
44
0.0000000001
40
0
40
0
40
0
40
0
40
1
40
1
40
1
40
1
41
1
41
1
41
1
41
1
10
10.568685821266596
20
3.6708470077364588
30
0
10
10.602479944926998
20
3.6620566045766805
30
0
10
10.637252638682249
20
3.6576080834723941
30
0
10
10.672171699759378
20
3.6576080834723941
30
0
0
LINE
5
186
100
AcDbEntity
8
0
100
AcDbLine
10
10.672171699759378
20
3.6576080834723941
30
0
11
12.616515203615933
21
3.6576080834723941
31
0
0
SPLINE
5
187
100
AcDbEntity
8
0
100
AcDbSpline
70
4
71
3
72
8
73
4
74
0
42
0.000000001
43
0.0000000001
44
0.0000000001
40
0
40
0
40
0
40
0
40
1
40
1
40
1
40
1
41
1
41
1
41
1
41
1
10
12.616515203615936
20
3.6576080834723941
30
0
10
12.843556011393012
20
3.6576080834723941
30
0
10
13.027615009619105
20
3.841663945255871
30
0
10
13.027615009619105
20
4.0687078894755668
30
0
0
LINE
5
188
100
AcDbEntity
8
0
100
AcDbLine
10
13.027615009619105
20
4.0687078894755659
30
0
11
13.027615009619105
21
4.9404152026270163
31
0
0
SPLINE
5
189
100
AcDbEntity
8
0
100
AcDbSpline
70
4
71
3
72
8
73
4
74
0
42
0.000000001
43
0.0000000001
44
0.0000000001
40
0
40
0
40
0
40
0
40
1
40
1
40
1
40
1
41
1
41
1
41
1
41
1
10
13.027615009619105
20
4.9404152026270145
30
0
10
13.027615009619105
20
5.0917778321068123
30
0
10
13.150316826513013
20
5.2144817399624639
30
0
10
13.301681546954551
20
5.2144817399624639
30
0
0
LINE
5
190
100
AcDbEntity
8
0
100
AcDbLine
10
13.301681546954551
20
5.2144817399624639
30
0
11
20.787922595314086
21
5.2144817399624639
31
0
0
SPLINE
5
191
100
AcDbEntity
8
0
100
AcDbSpline
70
4
71
3
72
8
73
4
74
0
42
0.000000001
43
0.0000000001
44
0.0000000001
40
0
40
0
40
0
40
0
40
1
40
1
40
1
40
1
41
1
41
1
41
1
41
1
10
20.787922595314086
20
5.2144817399624639
30
0
10
20.939285224793885
20
5.2144817399624639
30
0
10
21.061989132649543
20
5.3371846023372473
30
0
10
21.061989132649543
20
5.4885482772979106
30
0
0
SPLINE
5
192
100
AcDbEntity
8
0
100
AcDbSpline
70
4
71
3
72
8
73
4
74
0
42
0.000000001
43
0.0000000001
44
0.0000000001
40
0
40
0
40
0
40
0
40
1
40
1
40
1
40
1
41
1
41
1
41
1
41
1
10
21.061989132649543
20
5.4885482772979106
30
0
10
21.061989132649543
20
5.5012864162249722
30
0
10
21.061100473909558
20
5.5140099184198421
30
0
10
21.059331520276547
20
5.5266257360850464
30
0
0
SPLINE
5
193
100
AcDbEntity
8
0
100
AcDbSpline
70
4
71
3
72
8
73
4
74
0
42
0.000000001
43
0.0000000001
44
0.0000000001
40
0
40
0
40
0
40
0
40
1
40
1
40
1
40
1
41
1
41
1
41
1
41
1
10
-5.8013838056174247
20
19.273017136082316
30
0
10
-6.1494829343598765
20
18.704492087716005
30
0
10
-6.4026440362073478
20
18.672907457190455
30
0
10
-6.6663561310006454
20
19.357243035292299
30
0
0
SPLINE
5
194
100
AcDbEntity
8
0
100
AcDbSpline
70
4
71
3
72
8
73
4
74
0
42
0.000000001
43
0.0000000001
44
0.0000000001
40
0
40
0
40
0
40
0
40
1
40
1
40
1
40
1
41
1
41
1
41
1
41
1
10
-6.6663561310006454
20
19.357243035292299
30
0
10
-6.9300661348321979
20
20.041578744079246
30
0
10
-6.8878726178576164
20
20.304784793459909
30
0
10
-6.9722596518067759
20
20.589047301307421
30
0
0
SPLINE
5
195
100
AcDbEntity
8
0
100
AcDbSpline
70
4
71
3
72
8
73
4
74
0
42
0.000000001
43
0.0000000001
44
0.0000000001
40
0
40
0
40
0
40
0
40
1
40
1
40
1
40
1
41
1
41
1
41
1
41
1
10
-6.9722596518067759
20
20.589047301307421
30
0
10
-7.0566487767176742
20
20.873309809154939
30
0
10
-7.1832293276414108
20
20.831196847298216
30
0
10
-7.3203587805492276
20
20.589047301307421
30
0
0
SPLINE
5
196
100
AcDbEntity
8
0
100
AcDbSpline
70
4
71
3
72
8
73
4
74
0
42
0.000000001
43
0.0000000001
44
0.0000000001
40
0
40
0
40
0
40
0
40
1
40
1
40
1
40
1
41
1
41
1
41
1
41
1
10
-7.3203587805492276
20
20.589047301307421
30
0
10
-7.4574882334570445
20
20.346897743064897
30
0
10
-7.8161362641835774
20
19.294073643556086
30
0
10
-7.8899743961486548
20
19.020339307767266
30
0
0
SPLINE
5
197
100
AcDbEntity
8
0
100
AcDbSpline
70
4
71
3
72
8
73
4
74
0
42
0.000000001
43
0.0000000001
44
0.0000000001
40
0
40
0
40
0
40
0
40
1
40
1
40
1
40
1
41
1
41
1
41
1
41
1
10
-7.8899743961486548
20
19.020339307767266
30
0
10
-7.9638146190754719
20
18.746605102663551
30
0
10
-8.0587505550087126
20
18.693963964664228
30
0
10
-8.1747822039483715
20
18.693963964664228
30
0
0
SPLINE
5
198
100
AcDbEntity
8
0
100
AcDbSpline
70
4
71
3
72
8
73
4
74
0
42
0.000000001
43
0.0000000001
44
0.0000000001
40
0
40
0
40
0
40
0
40
1
40
1
40
1
40
1
41
1
41
1
41
1
41
1
10
-8.1747822039483715
20
18.693963964664228
30
0
10
-8.5213277481171481
20
18.693963964664228
30
0
10
-8.7844794651638143
20
18.510491873261856
30
0
10
-8.9599132462076803
20
18.335393691577444
30
0
0
SPLINE
5
199
100
AcDbEntity
8
0
100
AcDbSpline
70
4
71
3
72
8
73
4
74
0
42
0.000000001
43
0.0000000001
44
0.0000000001
40
0
40
0
40
0
40
0
40
1
40
1
40
1
40
1
41
1
41
1
41
1
41
1
10
-8.9599132462076803
20
18.335393691577444
30
0
10
-9.1353470272515445
20
18.16029577126325
30
0
10
-9.3107808082954087
20
17.722550578422442
30
0
10
-9.946920371689389
20
17.651668020878471
30
0
0
SPLINE
5
200
100
AcDbEntity
8
0
100
AcDbSpline
70
4
71
3
72
8
73
4
74
0
42
0.000000001
43
0.0000000001
44
0.0000000001
40
0
40
0
40
0
40
0
40
1
40
1
40
1
40
1
41
1
41
1
41
1
41
1
10
-9.946920371689389
20
17.651668020878471
30
0
10
-10.583062026045106
20
17.580785463334504
30
0
10
-10.970119953948585
20
17.651668020878471
30
0
10
-11.191636440805556
20
17.493744476195399
30
0
0
SPLINE
5
201
100
AcDbEntity
8
0
100
AcDbSpline
70
4
71
3
72
8
73
4
74
0
42
0.000000001
43
0.0000000001
44
0.0000000001
40
0
40
0
40
0
40
0
40
1
40
1
40
1
40
1
41
1
41
1
41
1
41
1
10
-11.191636440805556
20
17.493744476195399
30
0
10
-11.413155018624273
20
17.335820670142105
30
0
10
-10.759150278113946
20
16.419863901884096
30
0
10
-10.516538078250552
20
16.146129566095272
30
0
0
SPLINE
5
202
100
AcDbEntity
8
0
100
AcDbSpline
70
4
71
3
72
8
73
4
74
0
42
0.000000001
43
0.0000000001
44
0.0000000001
40
0
40
0
40
0
40
0
40
1
40
1
40
1
40
1
41
1
41
1
41
1
41
1
10
-10.516538078250552
20
16.146129566095272
30
0
10
-10.273923787425419
20
15.872395491676665
30
0
10
-10.115696530549442
20
15.693415439519818
30
0
10
-9.0924969482902451
20
15.451265864941654
30
0
0
SPLINE
5
203
100
AcDbEntity
8
0
100
AcDbSpline
70
4
71
3
72
8
73
4
74
0
42
0.000000001
43
0.0000000001
44
0.0000000001
40
0
40
0
40
0
40
0
40
1
40
1
40
1
40
1
41
1
41
1
41
1
41
1
10
-9.0924969482902451
20
15.451265864941654
30
0
10
-8.0692994569927894
20
15.209116290363486
30
0
10
-8.3435583628084249
20
14.672175611152509
30
0
10
-8.3435583628084249
20
14.240517992050828
30
0
0
SPLINE
5
204
100
AcDbEntity
8
0
100
AcDbSpline
70
4
71
3
72
8
73
4
74
0
42
0.000000001
43
0.0000000001
44
0.0000000001
40
0
40
0
40
0
40
0
40
1
40
1
40
1
40
1
41
1
41
1
41
1
41
1
10
-8.3435583628084249
20
14.240517992050828
30
0
10
-8.3435583628084249
20
13.808859850208714
30
0
10
-8.6389150725922175
20
10.818839448116082
30
0
10
-7.8055873621994962
20
9.4817530531230592
30
0
0
SPLINE
5
205
100
AcDbEntity
8
0
100
AcDbSpline
70
4
71
3
72
8
73
4
74
0
42
0.000000001
43
0.0000000001
44
0.0000000001
40
0
40
0
40
0
40
0
40
1
40
1
40
1
40
1
41
1
41
1
41
1
41
1
10
-7.8055873621994962
20
9.4817530531230592
30
0
10
-6.9722596518067759
20
8.1446666581300349
30
0
10
-6.2444188702931127
20
8.1025536431824889
30
0
10
-6.3393548062263525
20
7.4813874568168597
30
0
0
SPLINE
5
206
100
AcDbEntity
8
0
100
AcDbSpline
70
4
71
3
72
8
73
4
74
0
42
0.000000001
43
0.0000000001
44
0.0000000001
40
0
40
0
40
0
40
0
40
1
40
1
40
1
40
1
41
1
41
1
41
1
41
1
10
-6.3393548062263525
20
7.4813874568168597
30
0
10
-6.4342907421595887
20
6.8602212704512269
30
0
10
-6.645258327032483
20
7.060257307341411
30
0
10
-7.1410358106668328
20
6.8181082555036809
30
0
0
SPLINE
5
207
100
AcDbEntity
8
0
100
AcDbSpline
70
4
71
3
72
8
73
4
74
0
42
0.000000001
43
0.0000000001
44
0.0000000001
40
0
40
0
40
0
40
0
40
1
40
1
40
1
40
1
41
1
41
1
41
1
41
1
10
-7.1410358106668328
20
6.8181082555036809
30
0
10
-7.6368132943011835
20
6.5759581581850801
30
0
10
-7.6441567519360838
20
6.0600750319287453
30
0
10
-7.6473601053235196
20
5.9442639794527805
30
0
0
SPLINE
5
208
100
AcDbEntity
8
0
100
AcDbSpline
70
4
71
3
72
8
73
4
74
0
42
0.000000001
43
0.0000000001
44
0.0000000001
40
0
40
0
40
0
40
0
40
1
40
1
40
1
40
1
41
1
41
1
41
1
41
1
10
-7.6473601053235196
20
5.9442639794527805
30
0
10
-7.6505634587109563
20
5.8284529269768148
30
0
10
-7.0250020707654333
20
5.5757758827724144
30
0
10
-6.4764842591341694
20
5.6810578974008417
30
0
0
SPLINE
5
209
100
AcDbEntity
8
0
100
AcDbSpline
70
4
71
3
72
8
73
4
74
0
42
0.000000001
43
0.0000000001
44
0.0000000001
40
0
40
0
40
0
40
0
40
1
40
1
40
1
40
1
41
1
41
1
41
1
41
1
10
-6.4764842591341694
20
5.6810578974008417
30
0
10
-5.9279643565411613
20
5.7863399120292698
30
0
10
-5.6958989677001082
20
6.0390180017145383
30
0
10
-5.453284676874973
20
6.4285631286091069
30
0
0
SPLINE
5
210
100
AcDbEntity
8
0
100
AcDbSpline
70
4
71
3
72
8
73
4
74
0
42
0.000000001
43
0.0000000001
44
0.0000000001
40
0
40
0
40
0
40
0
40
1
40
1
40
1
40
1
41
1
41
1
41
1
41
1
10
-5.2212192880339163
20
6.2074700615047185
30
0
10
-5.4512313524451681
20
6.0600750319287453
30
0
10
-5.6537054507255267
20
5.5757758827724144
30
0
10
-5.2212192880339163
20
5.4178518153489037
30
0
0
SPLINE
5
211
100
AcDbEntity
8
0
100
AcDbSpline
70
4
71
3
72
8
73
4
74
0
42
0.000000001
43
0.0000000001
44
0.0000000001
40
0
40
0
40
0
40
0
40
1
40
1
40
1
40
1
41
1
41
1
41
1
41
1
10
-5.2212192880339163
20
5.4178518153489037
30
0
10
-4.788733125342306
20
5.2599277479253939
30
0
10
-4.5777634495076711
20
5.165173725663637
30
0
10
-4.0292456378764072
20
5.291512770506273
30
0
0
SPLINE
5
212
100
AcDbEntity
8
0
100
AcDbSpline
70
4
71
3
72
8
73
4
74
0
42
0.000000001
43
0.0000000001
44
0.0000000001
40
0
40
0
40
0
40
0
40
1
40
1
40
1
40
1
41
1
41
1
41
1
41
1
10
-4.0292456378764072
20
5.291512770506273
30
0
10
-3.4807257352833973
20
5.4178518153489037
30
0
10
-3.3435962823755805
20
5.6915858897675129
30
0
10
-2.9638525386426289
20
6.0600750319287453
30
0
0
SPLINE
5
213
100
AcDbEntity
8
0
100
AcDbSpline
70
4
71
3
72
8
73
4
74
0
42
0.000000001
43
0.0000000001
44
0.0000000001
40
0
40
0
40
0
40
0
40
1
40
1
40
1
40
1
41
1
41
1
41
1
41
1
10
-2.9638525386426289
20
6.0600750319287453
30
0
10
-2.5841087949096768
20
6.4285631286091069
30
0
10
-2.2887520851258842
20
7.0497293149747406
30
0
10
-2.0566866962848311
20
7.1971243445507138
30
0
0
SPLINE
5
214
100
AcDbEntity
8
0
100
AcDbSpline
70
4
71
3
72
8
73
4
74
0
42
0.000000001
43
0.0000000001
44
0.0000000001
40
0
40
0
40
0
40
0
40
1
40
1
40
1
40
1
41
1
41
1
41
1
41
1
10
-2.0566866962848311
20
7.1971243445507138
30
0
10
-1.8246213074437785
20
7.3445204196075533
30
0
10
-0.36893556249297127
20
7.0918423299222857
30
0
10
0.75974676672180186
20
7.3550484119742245
30
0
0
SPLINE
5
215
100
AcDbEntity
8
0
100
AcDbSpline
70
4
71
3
72
8
73
4
74
0
42
0.000000001
43
0.0000000001
44
0.0000000001
40
0
40
0
40
0
40
0
40
1
40
1
40
1
40
1
41
1
41
1
41
1
41
1
10
0.75974676672180186
20
7.3550484119742245
30
0
10
1.8884311868983161
20
7.6182544940261625
30
0
10
2.7006610933228825
20
7.9972705830731954
30
0
10
3.1753407729890699
20
8.1973076654442494
30
0
0
SPLINE
5
216
100
AcDbEntity
8
0
100
AcDbSpline
70
4
71
3
72
8
73
4
74
0
42
0.000000001
43
0.0000000001
44
0.0000000001
40
0
40
0
40
0
40
0
40
1
40
1
40
1
40
1
41
1
41
1
41
1
41
1
10
3.1753407729890699
20
8.1973076654442494
30
0
10
3.6500204526552569
20
8.3973437023344317
30
0
10
3.9453771624390459
20
8.1867796730775808
30
0
10
3.9453771624390459
20
7.6919514860737115
30
0
0
SPLINE
5
217
100
AcDbEntity
8
0
100
AcDbSpline
70
4
71
3
72
8
73
4
74
0
42
0.000000001
43
0.0000000001
44
0.0000000001
40
0
40
0
40
0
40
0
40
1
40
1
40
1
40
1
41
1
41
1
41
1
41
1
10
3.9453771624390459
20
7.6919514860737115
30
0
10
3.9453771624390459
20
7.1971243445507138
30
0
10
3.9981195813977051
20
6.723354233241924
30
0
10
3.5867291317125165
20
6.723354233241924
30
0
0
SPLINE
5
218
100
AcDbEntity
8
0
100
AcDbSpline
70
4
71
3
72
8
73
4
74
0
42
0.000000001
43
0.0000000001
44
0.0000000001
40
0
40
0
40
0
40
0
40
1
40
1
40
1
40
1
41
1
41
1
41
1
41
1
10
3.5867291317125165
20
6.723354233241924
30
0
10
3.1753407729890699
20
6.723354233241924
30
0
10
2.8483394482147766
20
6.4706761435566529
30
0
10
2.7112099953069557
20
6.2074700615047185
30
0
0
SPLINE
5
219
100
AcDbEntity
8
0
100
AcDbSpline
70
4
71
3
72
8
73
4
74
0
42
0.000000001
43
0.0000000001
44
0.0000000001
40
0
40
0
40
0
40
0
40
1
40
1
40
1
40
1
41
1
41
1
41
1
41
1
10
2.7112099953069557
20
6.2074700615047185
30
0
10
2.5740805423991424
20
5.9442639794527805
30
0
10
2.6690164783323782
20
5.7547559349292623
30
0
10
2.8799840632052724
20
5.6810578974008417
30
0
0
SPLINE
5
220
100
AcDbEntity
8
0
100
AcDbSpline
70
4
71
3
72
8
73
4
74
0
42
0.000000001
43
0.0000000001
44
0.0000000001
40
0
40
0
40
0
40
0
40
1
40
1
40
1
40
1
41
1
41
1
41
1
41
1
10
2.8799840632052724
20
5.6810578974008417
30
0
10
3.0909537390399073
20
5.6073598598724228
30
0
10
4.2090882117514736
20
5.4599648302964487
30
0
10
4.5571862950130546
20
5.9442639794527805
30
0
0
SPLINE
5
221
100
AcDbEntity
8
0
100
AcDbSpline
70
4
71
3
72
8
73
4
74
0
42
0.000000001
43
0.0000000001
44
0.0000000001
40
0
40
0
40
0
40
0
40
1
40
1
40
1
40
1
41
1
41
1
41
1
41
1
10
4.5571862950130546
20
5.9442639794527805
30
0
10
4.9052854237555108
20
6.4285631286091069
30
0
10
5.2744802655043808
20
7.8919885684447664
30
0
10
5.8335480246005975
20
7.8919885684447664
30
0
0
SPLINE
5
222
100
AcDbEntity
8
0
100
AcDbSpline
70
4
71
3
72
8
73
4
74
0
42
0.000000001
43
0.0000000001
44
0.0000000001
40
0
40
0
40
0
40
0
40
1
40
1
40
1
40
1
41
1
41
1
41
1
41
1
10
5.8335480246005975
20
7.8919885684447664
30
0
10
6.3926157836968134
20
7.8919885684447664
30
0
10
7.5951383358384081
20
7.3866334345550992
30
0
10
7.4685567394337937
20
6.723354233241924
30
0
0
SPLINE
5
223
100
AcDbEntity
8
0
100
AcDbSpline
70
4
71
3
72
8
73
4
74
0
42
0.000000001
43
0.0000000001
44
0.0000000001
40
0
40
0
40
0
40
0
40
1
40
1
40
1
40
1
41
1
41
1
41
1
41
1
10
7.4685567394337937
20
6.723354233241924
30
0
10
7.3419751430291882
20
6.0600750319287453
30
0
10
7.2786848675673221
20
6.2074700615047185
30
0
10
7.0993608522040583
20
6.2074700615047185
30
0
0
SPLINE
5
224
100
AcDbEntity
8
0
100
AcDbSpline
70
4
71
3
72
8
73
4
74
0
42
0.000000001
43
0.0000000001
44
0.0000000001
40
0
40
0
40
0
40
0
40
1
40
1
40
1
40
1
41
1
41
1
41
1
41
1
10
7.0993608522040583
20
6.2074700615047185
30
0
10
6.9200378823216599
20
6.2074700615047185
30
0
10
6.5719387535792118
20
6.0706030242954121
30
0
10
6.4242603986873092
20
5.6810578974008417
30
0
0
SPLINE
5
225
100
AcDbEntity
8
0
100
AcDbSpline
70
4
71
3
72
8
73
4
74
0
42
0.000000001
43
0.0000000001
44
0.0000000001
40
0
40
0
40
0
40
0
40
1
40
1
40
1
40
1
41
1
41
1
41
1
41
1
10
6.4242603986873092
20
5.6810578974008417
30
0
10
6.2765830892762899
20
5.291512770506273
30
0
10
6.2660341872922078
20
5.186230755877844
30
0
10
6.6141322705537888
20
5.1125327183494251
30
0
0
SPLINE
5
226
100
AcDbEntity
8
0
100
AcDbSpline
70
4
71
3
72
8
73
4
74
0
42
0.000000001
43
0.0000000001
44
0.0000000001
40
0
40
0
40
0
40
0
40
1
40
1
40
1
40
1
41
1
41
1
41
1
41
1
10
6.6141322705537888
20
5.1125327183494251
30
0
10
6.9040723439471394
20
5.0511483545146092
30
0
10
7.6916456295201163
20
4.9459384780662532
30
0
10
8.0320552464595067
20
5.1375960312596671
30
0
0
SPLINE
5
227
100
AcDbEntity
8
0
100
AcDbSpline
70
4
71
3
72
8
73
4
74
0
42
0.000000001
43
0.0000000001
44
0.0000000001
40
0
40
0
40
0
40
0
40
1
40
1
40
1
40
1
41
1
41
1
41
1
41
1
10
8.0320552464595067
20
5.1375960312596671
30
0
10
8.1003387385592287
20
5.1760404538323712
30
0
10
8.1506284593955254
20
5.226429495351371
30
0
10
8.1753018079410396
20
5.291512770506273
30
0
0
SPLINE
5
228
100
AcDbEntity
8
0
100
AcDbSpline
70
4
71
3
72
8
73
4
74
0
42
0.000000001
43
0.0000000001
44
0.0000000001
40
0
40
0
40
0
40
0
40
1
40
1
40
1
40
1
41
1
41
1
41
1
41
1
10
8.1753018079410396
20
5.291512770506273
30
0
10
8.3229801628329412
20
5.6810578974008417
30
0
10
8.8082087444832027
20
7.9446295757589791
30
0
10
9.0191773748369712
20
8.3973437023344317
30
0
0
SPLINE
5
229
100
AcDbEntity
8
0
100
AcDbSpline
70
4
71
3
72
8
73
4
74
0
42
0.000000001
43
0.0000000001
44
0.0000000001
40
0
40
0
40
0
40
0
40
1
40
1
40
1
40
1
41
1
41
1
41
1
41
1
10
9.0191773748369712
20
8.3973437023344317
30
0
10
9.2301460051907398
20
8.8500588743907578
30
0
10
10.188502772895268
20
11.959812450445309
30
0
10
9.4606609459007345
20
12.907353718543762
30
0
0
SPLINE
5
230
100
AcDbEntity
8
0
100
AcDbSpline
70
4
71
3
72
8
73
4
74
0
42
0.000000001
43
0.0000000001
44
0.0000000001
40
0
40
0
40
0
40
0
40
1
40
1
40
1
40
1
41
1
41
1
41
1
41
1
10
9.4606609459007345
20
12.907353718543762
30
0
10
8.7328180734253262
20
13.854895509382645
30
0
10
7.8272037246794568
20
14.282631006998374
30
0
10
6.7512627689424765
20
14.398441536733905
30
0
0
SPLINE
5
231
100
AcDbEntity
8
0
100
AcDbSpline
70
4
71
3
72
8
73
4
74
0
42
0.000000001
43
0.0000000001
44
0.0000000001
40
0
40
0
40
0
40
0
40
1
40
1
40
1
40
1
41
1
41
1
41
1
41
1
10
6.7512627689424765
20
14.398441536733905
30
0
10
5.6753218132054872
20
14.514252066469433
30
0
10
3.3335680298650461
20
14.503724074102767
30
0
10
2.0466563528125512
20
14.324744021945918
30
0
0
SPLINE
5
232
100
AcDbEntity
8
0
100
AcDbSpline
70
4
71
3
72
8
73
4
74
0
42
0.000000001
43
0.0000000001
44
0.0000000001
40
0
40
0
40
0
40
0
40
1
40
1
40
1
40
1
41
1
41
1
41
1
41
1
10
2.0466563528125512
20
14.324744021945918
30
0
10
0.75974676672180186
20
14.145763969789071
30
0
10
-0.71925947452800176
20
14.556365081416978
30
0
10
-1.3815862427680865
20
14.556365081416978
30
0
0
SPLINE
5
233
100
AcDbEntity
8
0
100
AcDbSpline
70
4
71
3
72
8
73
4
74
0
42
0.000000001
43
0.0000000001
44
0.0000000001
40
0
40
0
40
0
40
0
40
1
40
1
40
1
40
1
41
1
41
1
41
1
41
1
10
-1.3815862427680865
20
14.556365081416978
30
0
10
-2.0439151019699122
20
14.556365081416978
30
0
10
-2.3836880210591236
20
14.398441536733905
30
0
10
-2.9638525386426289
20
15.230172797837261
30
0
0
SPLINE
5
234
100
AcDbEntity
8
0
100
AcDbSpline
70
4
71
3
72
8
73
4
74
0
42
0.000000001
43
0.0000000001
44
0.0000000001
40
0
40
0
40
0
40
0
40
1
40
1
40
1
40
1
41
1
41
1
41
1
41
1
10
-2.9638525386426289
20
15.230172797837261
30
0
10
-3.5440170562261382
20
16.061903536200184
30
0
10
-3.9448586039272482
20
16.66201347646226
30
0
10
-4.2507621247333782
20
17.198953632932799
30
0
0
SPLINE
5
235
100
AcDbEntity
8
0
100
AcDbSpline
70
4
71
3
72
8
73
4
74
0
42
0.000000001
43
0.0000000001
44
0.0000000001
40
0
40
0
40
0
40
0
40
1
40
1
40
1
40
1
41
1
41
1
41
1
41
1
10
-4.2507621247333782
20
17.198953632932799
30
0
10
-4.5566677365012529
20
17.735894050773563
30
0
10
-4.3984404796252772
20
18.072797647613484
30
0
10
-4.3246023476601998
20
18.904528778031732
30
0
0
SPLINE
5
236
100
AcDbEntity
8
0
100
AcDbSpline
70
4
71
3
72
8
73
4
74
0
42
0.000000001
43
0.0000000001
44
0.0000000001
40
0
40
0
40
0
40
0
40
1
40
1
40
1
40
1
41
1
41
1
41
1
41
1
10
-4.3246023476601998
20
18.904528778031732
30
0
10
-4.2507621247333782
20
19.736259777764872
30
0
10
-4.2613110267174594
20
20.504821385761804
30
0
10
-4.5250210305490128
20
20.589047301307421
30
0
0
SPLINE
5
237
100
AcDbEntity
8
0
100
AcDbSpline
70
4
71
3
72
8
73
4
74
0
42
0.000000001
43
0.0000000001
44
0.0000000001
40
0
40
0
40
0
40
0
40
1
40
1
40
1
40
1
41
1
41
1
41
1
41
1
10
-4.5250210305490128
20
20.589047301307421
30
0
10
-4.788733125342306
20
20.673273233188677
30
0
10
-5.453284676874973
20
19.841542184448624
30
0
10
-5.8013838056174247
20
19.273017136082316
30
0
0
SPLINE
5
238
100
AcDbEntity
8
0
100
AcDbSpline
70
4
71
3
72
8
73
4
74
0
42
0.000000001
43
0.0000000001
44
0.0000000001
40
0
40
0
40
0
40
0
40
1
40
1
40
1
40
1
41
1
41
1
41
1
41
1
10
-20.370358068745439
20
-17.54427559631489
30
0
10
-20.181854208598104
20
-17.481638746397127
30
0
10
-20.031081491699535
20
-17.433605173279531
30
0
10
-19.918040179419933
20
-17.400170695038611
30
0
0
SPLINE
5
239
100
AcDbEntity
8
0
100
AcDbSpline
70
4
71
3
72
8
73
4
74
0
42
0.000000001
43
0.0000000001
44
0.0000000001
40
0
40
0
40
0
40
0
40
1
40
1
40
1
40
1
41
1
41
1
41
1
41
1
10
-19.918040179419933
20
-17.400170695038611
30
0
10
-18.394588194030117
20
-16.949597713286085
30
0
10
-16.793818193597524
20
-16.760348948018475
30
0
10
-14.481296055398296
20
-16.760348948018475
30
0
0
SPLINE
5
240
100
AcDbEntity
8
0
100
AcDbSpline
70
4
71
3
72
8
73
4
74
0
42
0.000000001
43
0.0000000001
44
0.0000000001
40
0
40
0
40
0
40
0
40
1
40
1
40
1
40
1
41
1
41
1
41
1
41
1
10
-14.481296055398296
20
-16.760348948018475
30
0
10
-10.809388460717596
20
-16.760348948018475
30
0
10
-8.9319693238290192
20
-17.237485507730508
30
0
10
-6.3092111920960061
20
-18.480302983585723
30
0
0
SPLINE
5
241
100
AcDbEntity
8
0
100
AcDbSpline
70
4
71
3
72
8
73
4
74
0
42
0.000000001
43
0.0000000001
44
0.0000000001
40
0
40
0
40
0
40
0
40
1
40
1
40
1
40
1
41
1
41
1
41
1
41
1
10
-6.3092111920960061
20
-18.480302983585723
30
0
10
-6.2528775463469275
20
-18.507000383096667
30
0
10
-6.0619068740854809
20
-18.597685393810156
30
0
10
-6.0334603850780653
20
-18.61118046088751
30
0
0
SPLINE
5
242
100
AcDbEntity
8
0
100
AcDbSpline
70
4
71
3
72
8
73
4
74
0
42
0.000000001
43
0.0000000001
44
0.0000000001
40
0
40
0
40
0
40
0
40
1
40
1
40
1
40
1
41
1
41
1
41
1
41
1
10
-6.0334603850780653
20
-18.61118046088751
30
0
10
-3.8692585270252633
20
-19.637641943462896
30
0
10
-2.5813620069926917
20
-19.979543461604596
30
0
10
0.15775187274985505
20
-19.979543461604596
30
0
0
SPLINE
5
243
100
AcDbEntity
8
0
100
AcDbSpline
70
4
71
3
72
8
73
4
74
0
42
0.000000001
43
0.0000000001
44
0.0000000001
40
0
40
0
40
0
40
0
40
1
40
1
40
1
40
1
41
1
41
1
41
1
41
1
10
0.15775187274985505
20
-19.979543461604596
30
0
10
2.8968657524924026
20
-19.979543461604596
30
0
10
4.1847622725249778
20
-19.637641943462896
30
0
10
6.3489641305777713
20
-18.61118046088751
30
0
0
SPLINE
5
244
100
AcDbEntity
8
0
100
AcDbSpline
70
4
71
3
72
8
73
4
74
0
42
0.000000001
43
0.0000000001
44
0.0000000001
40
0
40
0
40
0
40
0
40
1
40
1
40
1
40
1
41
1
41
1
41
1
41
1
10
6.3489641305777713
20
-18.61118046088751
30
0
10
6.3774116650660631
20
-18.597685393810156
30
0
10
6.5683833828083795
20
-18.507000383096667
30
0
10
6.6247159830765838
20
-18.480302983585723
30
0
0
SPLINE
5
245
100
AcDbEntity
8
0
100
AcDbSpline
70
4
71
3
72
8
73
4
74
0
42
0.000000001
43
0.0000000001
44
0.0000000001
40
0
40
0
40
0
40
0
40
1
40
1
40
1
40
1
41
1
41
1
41
1
41
1
10
6.6247159830765838
20
-18.480302983585723
30
0
10
9.247474114809604
20
-17.237485507730508
30
0
10
11.124892206217305
20
-16.760348948018475
30
0
10
14.796800846378872
20
-16.760348948018475
30
0
0
SPLINE
5
246
100
AcDbEntity
8
0
100
AcDbSpline
70
4
71
3
72
8
73
4
74
0
42
0.000000001
43
0.0000000001
44
0.0000000001
40
0
40
0
40
0
40
0
40
1
40
1
40
1
40
1
41
1
41
1
41
1
41
1
10
14.796800846378872
20
-16.760348948018475
30
0
10
16.77363371376935
20
-16.760348948018475
30
0
10
18.23035239382029
20
-16.898640975654367
30
0
10
19.563273593024945
20
-17.220251801059987
30
0
0
SPLINE
5
247
100
AcDbEntity
8
0
100
AcDbSpline
70
4
71
3
72
8
73
4
74
0
42
0.000000001
43
0.0000000001
44
0.0000000001
40
0
40
0
40
0
40
0
40
1
40
1
40
1
40
1
41
1
41
1
41
1
41
1
10
19.563273593024945
20
-17.220251801059987
30
0
10
19.704116593985038
20
-17.254234111277086
30
0
10
19.893758460059988
20
-17.305253577761039
30
0
10
20.132203373173276
20
-17.373314382435328
30
0
0
SPLINE
5
248
100
AcDbEntity
8
0
100
AcDbSpline
70
4
71
3
72
8
73
4
74
0
42
0.000000001
43
0.0000000001
44
0.0000000001
40
0
40
0
40
0
40
0
40
1
40
1
40
1
40
1
41
1
41
1
41
1
41
1
10
20.132203373173276
20
-17.373314382435328
30
0
10
20.277751038050944
20
-17.414857610308413
30
0
10
20.362062797377419
20
-17.566527611164158
30
0
10
20.320519569504334
20
-17.712075276041826
30
0
0
SPLINE
5
249
100
AcDbEntity
8
0
100
AcDbSpline
70
4
71
3
72
8
73
4
74
0
42
0.000000001
43
0.0000000001
44
0.0000000001
40
0
40
0
40
0
40
0
40
1
40
1
40
1
40
1
41
1
41
1
41
1
41
1
10
20.320519569504334
20
-17.712075276041826
30
0
10
20.318127509272472
20
-17.720460032623826
30
0
10
20.315338166309786
20
-17.728719331501352
30
0
10
20.312155722539757
20
-17.736836444980476
30
0
0
LINE
5
250
100
AcDbEntity
8
0
100
AcDbLine
10
20.312155722539757
20
-17.736836444980476
30
0
11
19.6832027946501
21
-19.342097047122394
31
0
0
SPLINE
5
251
100
AcDbEntity
8
0
100
AcDbSpline
70
4
71
3
72
8
73
4
74
0
42
0.000000001
43
0.0000000001
44
0.0000000001
40
0
40
0
40
0
40
0
40
1
40
1
40
1
40
1
41
1
41
1
41
1
41
1
10
19.6832027946501
20
-19.342097047122401
30
0
10
19.632216783554
20
-19.472230142044346
30
0
10
19.491474148757483
20
-19.543147200457035
30
0
10
19.35654438760135
20
-19.50669755538539
30
0
0
SPLINE
5
252
100
AcDbEntity
8
0
100
AcDbSpline
70
4
71
3
72
8
73
4
74
0
42
0.000000001
43
0.0000000001
44
0.0000000001
40
0
40
0
40
0
40
0
40
1
40
1
40
1
40
1
41
1
41
1
41
1
41
1
10
19.35654438760135
20
-19.50669755538539
30
0
10
19.132627476665544
20
-19.44620185029056
30
0
10
18.955083915224865
20
-19.401346539019503
30
0
10
18.82391370327931
20
-19.372131621572215
30
0
0
SPLINE
5
253
100
AcDbEntity
8
0
100
AcDbSpline
70
4
71
3
72
8
73
4
74
0
42
0.000000001
43
0.0000000001
44
0.0000000001
40
0
40
0
40
0
40
0
40
1
40
1
40
1
40
1
41
1
41
1
41
1
41
1
10
18.82391370327931
20
-19.372131621572215
30
0
10
17.714219397635883
20
-19.124959034151384
30
0
10
16.484374248422736
20
-19.022485181141317
30
0
10
14.796800846378872
20
-19.022485181141317
30
0
0
SPLINE
5
254
100
AcDbEntity
8
0
100
AcDbSpline
70
4
71
3
72
8
73
4
74
0
42
0.000000001
43
0.0000000001
44
0.0000000001
40
0
40
0
40
0
40
0
40
1
40
1
40
1
40
1
41
1
41
1
41
1
41
1
10
14.796800846378872
20
-19.022485181141317
30
0
10
11.48886173457505
20
-19.022485181141317
30
0
10
9.9396493619045412
20
-19.416209095075562
30
0
10
7.6066504353742701
20
-20.52172565916019
30
0
0
SPLINE
5
255
100
AcDbEntity
8
0
100
AcDbSpline
70
4
71
3
72
8
73
4
74
0
42
0.000000001
43
0.0000000001
44
0.0000000001
40
0
40
0
40
0
40
0
40
1
40
1
40
1
40
1
41
1
41
1
41
1
41
1
10
7.6066504353742701
20
-20.52172565916019
30
0
10
7.5513716798236068
20
-20.547917045929779
30
0
10
7.3609059748226411
20
-20.638367868928263
30
0
10
7.3316304194848634
20
-20.652251854889467
30
0
0
SPLINE
5
256
100
AcDbEntity
8
0
100
AcDbSpline
70
4
71
3
72
8
73
4
74
0
42
0.000000001
43
0.0000000001
44
0.0000000001
40
0
40
0
40
0
40
0
40
1
40
1
40
1
40
1
41
1
41
1
41
1
41
1
10
7.3316304194848634
20
-20.652251854889467
30
0
10
4.8821001041588072
20
-21.814044563275278
30
0
10
3.2712503612827994
20
-22.241679694727434
30
0
10
0.15775187274985505
20
-22.241679694727434
30
0
0
SPLINE
5
257
100
AcDbEntity
8
0
100
AcDbSpline
70
4
71
3
72
8
73
4
74
0
42
0.000000001
43
0.0000000001
44
0.0000000001
40
0
40
0
40
0
40
0
40
1
40
1
40
1
40
1
41
1
41
1
41
1
41
1
10
0.15775187274985505
20
-22.241679694727434
30
0
10
-2.9557466157830885
20
-22.241679694727434
30
0
10
-4.5665963586590932
20
-21.814044563275278
30
0
10
-7.016125628504283
20
-20.652251854889467
30
0
0
SPLINE
5
258
100
AcDbEntity
8
0
100
AcDbSpline
70
4
71
3
72
8
73
4
74
0
42
0.000000001
43
0.0000000001
44
0.0000000001
40
0
40
0
40
0
40
0
40
1
40
1
40
1
40
1
41
1
41
1
41
1
41
1
10
-7.016125628504283
20
-20.652251854889467
30
0
10
-7.0454011838420607
20
-20.638367868928263
30
0
10
-7.2358668888430211
20
-20.547917045929779
30
0
10
-7.291146689874564
20
-20.52172565916019
30
0
0
SPLINE
5
259
100
AcDbEntity
8
0
100
AcDbSpline
70
4
71
3
72
8
73
4
74
0
42
0.000000001
43
0.0000000001
44
0.0000000001
40
0
40
0
40
0
40
0
40
1
40
1
40
1
40
1
41
1
41
1
41
1
41
1
10
-7.291146689874564
20
-20.52172565916019
30
0
10
-9.6241456164048298
20
-19.416209095075562
30
0
10
-11.173357989075344
20
-19.022485181141317
30
0
10
-14.481296055398296
20
-19.022485181141317
30
0
0
SPLINE
5
260
100
AcDbEntity
8
0
100
AcDbSpline
70
4
71
3
72
8
73
4
74
0
42
0.000000001
43
0.0000000001
44
0.0000000001
40
0
40
0
40
0
40
0
40
1
40
1
40
1
40
1
41
1
41
1
41
1
41
1
10
-14.481296055398296
20
-19.022485181141317
30
0
10
-16.334467354455672
20
-19.022485181141317
30
0
10
-17.635669709528024
20
-19.146052656196066
30
0
10
-18.831934274548587
20
-19.449116650957716
30
0
0
SPLINE
5
261
100
AcDbEntity
8
0
100
AcDbSpline
70
4
71
3
72
8
73
4
74
0
42
0.000000001
43
0.0000000001
44
0.0000000001
40
0
40
0
40
0
40
0
40
1
40
1
40
1
40
1
41
1
41
1
41
1
41
1
10
-18.831934274548587
20
-19.449116650957716
30
0
10
-18.981074995808193
20
-19.486900329620216
30
0
10
-19.186496827403133
20
-19.545986726501518
30
0
10
-19.448199769333407
20
-19.626384205448566
30
0
0
SPLINE
5
262
100
AcDbEntity
8
0
100
AcDbSpline
70
4
71
3
72
8
73
4
74
0
42
0.000000001
43
0.0000000001
44
0.0000000001
40
0
40
0
40
0
40
0
40
1
40
1
40
1
40
1
41
1
41
1
41
1
41
1
10
-19.448199769333407
20
-19.626384205448566
30
0
10
-19.577491252154541
20
-19.666104114683375
30
0
10
-19.716426511896049
20
-19.605566590353718
30
0
10
-19.775363405012854
20
-19.483826615860735
30
0
0
LINE
5
263
100
AcDbEntity
8
0
100
AcDbLine
10
-19.775363405012854
20
-19.483826615860735
30
0
11
-20.530617871118917
21
-17.92378515233283
31
0
0
SPLINE
5
264
100
AcDbEntity
8
0
100
AcDbSpline
70
4
71
3
72
8
73
4
74
0
42
0.000000001
43
0.0000000001
44
0.0000000001
40
0
40
0
40
0
40
0
40
1
40
1
40
1
40
1
41
1
41
1
41
1
41
1
10
-20.530617871118917
20
-17.923785152332833
30
0
10
-20.596573861430532
20
-17.78754644912674
30
0
10
-20.539599074537573
20
-17.623635958238332
30
0
10
-20.403361024757025
20
-17.557678661075631
30
0
0
SPLINE
5
265
100
AcDbEntity
8
0
100
AcDbSpline
70
4
71
3
72
8
73
4
74
0
42
0.000000001
43
0.0000000001
44
0.0000000001
40
0
40
0
40
0
40
0
40
1
40
1
40
1
40
1
41
1
41
1
41
1
41
1
10
-20.403361024757025
20
-17.557678661075631
30
0
10
-20.39266235763824
20
-17.552501439804558
30
0
10
-20.381638284598488
20
-17.548022599755019
30
0
10
-20.370358068745439
20
-17.54427559631489
30
0
0
SPLINE
5
266
100
AcDbEntity
8
0
100
AcDbSpline
70
4
71
3
72
8
73
4
74
0
42
0.000000001
43
0.0000000001
44
0.0000000001
40
0
40
0
40
0
40
0
40
1
40
1
40
1
40
1
41
1
41
1
41
1
41
1
10
-22.33217119856522
20
-13.155775548807018
30
0
10
-22.14423356432313
20
-13.068885633653709
30
0
10
-21.996688965640114
20
-13.001809671959501
30
0
10
-21.889537369844881
20
-12.95454766372438
30
0
0
SPLINE
5
267
100
AcDbEntity
8
0
100
AcDbSpline
70
4
71
3
72
8
73
4
74
0
42
0.000000001
43
0.0000000001
44
0.0000000001
40
0
40
0
40
0
40
0
40
1
40
1
40
1
40
1
41
1
41
1
41
1
41
1
10
-21.889537369844881
20
-12.95454766372438
30
0
10
-19.607158340078353
20
-11.947856224411527
30
0
10
-17.751564400473633
20
-11.553084738644962
30
0
10
-14.41099269425662
20
-11.553084738644962
30
0
0
SPLINE
5
268
100
AcDbEntity
8
0
100
AcDbSpline
70
4
71
3
72
8
73
4
74
0
42
0.000000001
43
0.0000000001
44
0.0000000001
40
0
40
0
40
0
40
0
40
1
40
1
40
1
40
1
41
1
41
1
41
1
41
1
10
-14.41099269425662
20
-11.553084738644962
30
0
10
-10.73842121922311
20
-11.553084738644962
30
0
10
-8.8606623010515975
20
-12.030223389318744
30
0
10
-6.2374295210033424
20
-13.27304086517395
30
0
0
SPLINE
5
269
100
AcDbEntity
8
0
100
AcDbSpline
70
4
71
3
72
8
73
4
74
0
42
0.000000001
43
0.0000000001
44
0.0000000001
40
0
40
0
40
0
40
0
40
1
40
1
40
1
40
1
41
1
41
1
41
1
41
1
10
-6.2374295210033424
20
-13.27304086517395
30
0
10
-6.1810864659264331
20
-13.299734082761422
30
0
10
-5.9900812927962548
20
-13.390423275398394
30
0
10
-5.9616285309036154
20
-13.403914160552258
30
0
0
SPLINE
5
270
100
AcDbEntity
8
0
100
AcDbSpline
70
4
71
3
72
8
73
4
74
0
42
0.000000001
43
0.0000000001
44
0.0000000001
40
0
40
0
40
0
40
0
40
1
40
1
40
1
40
1
41
1
41
1
41
1
41
1
10
-5.9616285309036154
20
-13.403914160552258
30
0
10
-3.7970346175243512
20
-14.430377734089381
30
0
10
-2.5089060007385111
20
-14.772279252231082
30
0
10
0.2307034369366861
20
-14.772279252231082
30
0
0
SPLINE
5
271
100
AcDbEntity
8
0
100
AcDbSpline
70
4
71
3
72
8
73
4
74
0
42
0.000000001
43
0.0000000001
44
0.0000000001
40
0
40
0
40
0
40
0
40
1
40
1
40
1
40
1
41
1
41
1
41
1
41
1
10
0.2307034369366861
20
-14.772279252231082
30
0
10
2.9703128746118916
20
-14.772279252231082
30
0
10
4.2584414913977282
20
-14.430377734089381
30
0
10
6.4230364502578627
20
-13.403914160552258
30
0
0
SPLINE
5
272
100
AcDbEntity
8
0
100
AcDbSpline
70
4
71
3
72
8
73
4
74
0
42
0.000000001
43
0.0000000001
44
0.0000000001
40
0
40
0
40
0
40
0
40
1
40
1
40
1
40
1
41
1
41
1
41
1
41
1
10
6.4230364502578627
20
-13.403914160552258
30
0
10
6.4514881666696269
20
-13.390423275398394
30
0
10
6.6424933397998096
20
-13.299734082761422
30
0
10
6.6988363948767198
20
-13.27304086517395
30
0
0
SPLINE
5
273
100
AcDbEntity
8
0
100
AcDbSpline
70
4
71
3
72
8
73
4
74
0
42
0.000000001
43
0.0000000001
44
0.0000000001
40
0
40
0
40
0
40
0
40
1
40
1
40
1
40
1
41
1
41
1
41
1
41
1
10
6.6988363948767198
20
-13.27304086517395
30
0
10
9.3220691749249749
20
-12.030223389318744
30
0
10
11.199828093096482
20
-11.553084738644962
30
0
10
14.872397477168258
20
-11.553084738644962
30
0
0
SPLINE
5
274
100
AcDbEntity
8
0
100
AcDbSpline
70
4
71
3
72
8
73
4
74
0
42
0.000000001
43
0.0000000001
44
0.0000000001
40
0
40
0
40
0
40
0
40
1
40
1
40
1
40
1
41
1
41
1
41
1
41
1
10
14.872397477168258
20
-11.553084738644962
30
0
10
18.044482622726363
20
-11.553084738644962
30
0
10
19.877603689647895
20
-11.909037519687157
30
0
10
22.008603166213042
20
-12.806865126909004
30
0
0
SPLINE
5
275
100
AcDbEntity
8
0
100
AcDbSpline
70
4
71
3
72
8
73
4
74
0
42
0.000000001
43
0.0000000001
44
0.0000000001
40
0
40
0
40
0
40
0
40
1
40
1
40
1
40
1
41
1
41
1
41
1
41
1
10
22.008603166213042
20
-12.806865126909004
30
0
10
22.097469040211738
20
-12.844305887845957
30
0
10
22.216373670583724
20
-12.895967279584442
30
0
10
22.365312875405536
20
-12.961849302124463
30
0
0
SPLINE
5
276
100
AcDbEntity
8
0
100
AcDbSpline
70
4
71
3
72
8
73
4
74
0
42
0.000000001
43
0.0000000001
44
0.0000000001
40
0
40
0
40
0
40
0
40
1
40
1
40
1
40
1
41
1
41
1
41
1
41
1
10
22.365312875405536
20
-12.961849302124463
30
0
10
22.503734542669381
20
-13.023083116713916
30
0
10
22.566312845658384
20
-13.184934010287295
30
0
10
22.505085303954154
20
-13.323357768512881
30
0
0
SPLINE
5
277
100
AcDbEntity
8
0
100
AcDbSpline
70
4
71
3
72
8
73
4
74
0
42
0.000000001
43
0.0000000001
44
0.0000000001
40
0
40
0
40
0
40
0
40
1
40
1
40
1
40
1
41
1
41
1
41
1
41
1
10
22.505085303954154
20
-13.323357768512881
30
0
10
22.501869404796274
20
-13.330623860563367
30
0
10
22.498339861377218
20
-13.337747767215449
30
0
10
22.494509219467442
20
-13.344706487889976
30
0
0
LINE
5
278
100
AcDbEntity
8
0
100
AcDbLine
10
22.494509219467446
20
-13.344706487889974
30
0
11
21.662758094227542
21
-14.854893150623745
31
0
0
SPLINE
5
279
100
AcDbEntity
8
0
100
AcDbSpline
70
4
71
3
72
8
73
4
74
0
42
0.000000001
43
0.0000000001
44
0.0000000001
40
0
40
0
40
0
40
0
40
1
40
1
40
1
40
1
41
1
41
1
41
1
41
1
10
21.662758094227542
20
-14.854893150623745
30
0
10
21.59459692338968
20
-14.978648812235193
30
0
10
21.443533301438865
20
-15.030312294935426
30
0
10
21.313864400023462
20
-14.974211791420483
30
0
0
SPLINE
5
280
100
AcDbEntity
8
0
100
AcDbSpline
70
4
71
3
72
8
73
4
74
0
42
0.000000001
43
0.0000000001
44
0.0000000001
40
0
40
0
40
0
40
0
40
1
40
1
40
1
40
1
41
1
41
1
41
1
41
1
10
21.313864400023462
20
-14.974211791420483
30
0
10
21.117790735632738
20
-14.889377291658722
30
0
10
20.964686335022577
20
-14.824820938862588
30
0
10
20.854542834345985
20
-14.780538551108609
30
0
0
SPLINE
5
281
100
AcDbEntity
8
0
100
AcDbSpline
70
4
71
3
72
8
73
4
74
0
42
0.000000001
43
0.0000000001
44
0.0000000001
40
0
40
0
40
0
40
0
40
1
40
1
40
1
40
1
41
1
41
1
41
1
41
1
10
20.854542834345985
20
-14.780538551108609
30
0
10
19.109413619415342
20
-14.078891247326276
30
0
10
17.57990437923165
20
-13.815220971767804
30
0
10
14.872397477168258
20
-13.815220971767804
30
0
0
SPLINE
5
282
100
AcDbEntity
8
0
100
AcDbSpline
70
4
71
3
72
8
73
4
74
0
42
0.000000001
43
0.0000000001
44
0.0000000001
40
0
40
0
40
0
40
0
40
1
40
1
40
1
40
1
41
1
41
1
41
1
41
1
10
14.872397477168258
20
-13.815220971767804
30
0
10
11.56386244126821
20
-13.815220971767804
30
0
10
10.014369879724384
20
-14.2089469766638
30
0
10
7.6809485789224059
20
-15.314461449786677
30
0
0
SPLINE
5
283
100
AcDbEntity
8
0
100
AcDbSpline
70
4
71
3
72
8
73
4
74
0
42
0.000000001
43
0.0000000001
44
0.0000000001
40
0
40
0
40
0
40
0
40
1
40
1
40
1
40
1
41
1
41
1
41
1
41
1
10
7.6809485789224059
20
-15.314461449786677
30
0
10
7.6256593685630296
20
-15.340652836556268
30
0
10
7.4351602081742074
20
-15.431103659554747
30
0
10
7.405878379951206
20
-15.444987645515953
30
0
0
SPLINE
5
284
100
AcDbEntity
8
0
100
AcDbSpline
70
4
71
3
72
8
73
4
74
0
42
0.000000001
43
0.0000000001
44
0.0000000001
40
0
40
0
40
0
40
0
40
1
40
1
40
1
40
1
41
1
41
1
41
1
41
1
10
7.405878379951206
20
-15.444987645515953
30
0
10
4.9559068716977634
20
-16.606780353901772
30
0
10
3.3447643941780036
20
-17.034415485353922
30
0
10
0.2307034369366861
20
-17.034415485353922
30
0
0
SPLINE
5
285
100
AcDbEntity
8
0
100
AcDbSpline
70
4
71
3
72
8
73
4
74
0
42
0.000000001
43
0.0000000001
44
0.0000000001
40
0
40
0
40
0
40
0
40
1
40
1
40
1
40
1
41
1
41
1
41
1
41
1
10
0.2307034369366861
20
-17.034415485353922
30
0
10
-2.8833575203046227
20
-17.034415485353922
30
0
10
-4.4944999978243914
20
-16.606780353901772
30
0
10
-6.9444725515587002
20
-15.444987645515953
30
0
0
SPLINE
5
286
100
AcDbEntity
8
0
100
AcDbSpline
70
4
71
3
72
8
73
4
74
0
42
0.000000001
43
0.0000000001
44
0.0000000001
40
0
40
0
40
0
40
0
40
1
40
1
40
1
40
1
41
1
41
1
41
1
41
1
10
-6.9444725515587002
20
-15.444987645515953
30
0
10
-6.9737533343008344
20
-15.431103659554747
30
0
10
-7.1642524946896522
20
-15.340652836556268
30
0
10
-7.2195427505298957
20
-15.314461449786677
30
0
0
SPLINE
5
287
100
AcDbEntity
8
0
100
AcDbSpline
70
4
71
3
72
8
73
4
74
0
42
0.000000001
43
0.0000000001
44
0.0000000001
40
0
40
0
40
0
40
0
40
1
40
1
40
1
40
1
41
1
41
1
41
1
41
1
10
-7.2195427505298957
20
-15.314461449786677
30
0
10
-9.5529640513318785
20
-14.2089469766638
30
0
10
-11.102455567394831
20
-13.815220971767804
30
0
10
-14.41099269425662
20
-13.815220971767804
30
0
0
SPLINE
5
288
100
AcDbEntity
8
0
100
AcDbSpline
70
4
71
3
72
8
73
4
74
0
42
0.000000001
43
0.0000000001
44
0.0000000001
40
0
40
0
40
0
40
0
40
1
40
1
40
1
40
1
41
1
41
1
41
1
41
1
10
-14.41099269425662
20
-13.815220971767804
30
0
10
-17.364746410429955
20
-13.815220971767804
30
0
10
-18.916482051181593
20
-14.129034600840695
30
0
10
-20.87569307712835
20
-14.98298128496285
30
0
0
SPLINE
5
289
100
AcDbEntity
8
0
100
AcDbSpline
70
4
71
3
72
8
73
4
74
0
42
0.000000001
43
0.0000000001
44
0.0000000001
40
0
40
0
40
0
40
0
40
1
40
1
40
1
40
1
41
1
41
1
41
1
41
1
10
-20.87569307712835
20
-14.98298128496285
30
0
10
-20.990600311391702
20
-15.033064000586771
30
0
10
-21.151303005598979
20
-15.105741648785516
30
0
10
-21.357801159750174
20
-15.201010047635592
30
0
0
SPLINE
5
290
100
AcDbEntity
8
0
100
AcDbSpline
70
4
71
3
72
8
73
4
74
0
42
0.000000001
43
0.0000000001
44
0.0000000001
40
0
40
0
40
0
40
0
40
1
40
1
40
1
40
1
41
1
41
1
41
1
41
1
10
-21.357801159750174
20
-15.201010047635592
30
0
10
-21.493674859447324
20
-15.263697080635144
30
0
10
-21.654713087671496
20
-15.205810895793261
30
0
10
-21.719585633088428
20
-15.07096477310678
30
0
0
LINE
5
291
100
AcDbEntity
8
0
100
AcDbLine
10
-21.719585633088428
20
-15.07096477310678
30
0
11
-22.464129539730795
21
-13.523358259053468
31
0
0
SPLINE
5
292
100
AcDbEntity
8
0
100
AcDbSpline
70
4
71
3
72
8
73
4
74
0
42
0.000000001
43
0.0000000001
44
0.0000000001
40
0
40
0
40
0
40
0
40
1
40
1
40
1
40
1
41
1
41
1
41
1
41
1
10
-22.464129539730791
20
-13.523358259053468
30
0
10
-22.529750028696785
20
-13.386958551793311
30
0
10
-22.472373009374511
20
-13.223190246303298
30
0
10
-22.33597439660214
20
-13.15756959398092
30
0
0
SPLINE
5
293
100
AcDbEntity
8
0
100
AcDbSpline
70
4
71
3
72
8
73
4
74
0
42
0.000000001
43
0.0000000001
44
0.0000000001
40
0
40
0
40
0
40
0
40
1
40
1
40
1
40
1
41
1
41
1
41
1
41
1
10
-22.33597439660214
20
-13.15756959398092
30
0
10
-22.334711259682827
20
-13.15696321507599
30
0
10
-22.33344351611343
20
-13.156365200018021
30
0
10
-22.33217119856522
20
-13.155775548807018
30
0
0
CIRCLE
5
294
100
AcDbEntity
8
0
100
AcDbCircle
10
29.570336923035171
20
-9.630020182073725
30
0
40
3.1734020112525547
210
0
220
0
230
-1
0
CIRCLE
5
295
100
AcDbEntity
8
0
100
AcDbCircle
10
-29.137600285137097
20
-9.630020182073725
30
0
40
3.1734020112525547
210
0
220
0
230
-1
0
CIRCLE
5
296
100
AcDbEntity
8
0
100
AcDbCircle
10
0
20
0
30
0
40
39
210
0
220
0
230
1
0
ARC
5
297
100
AcDbEntity
8
0
100
AcDbCircle
10
-5.3372519824544451
20
6.3180165950569123
30
0
40
0.16026266644135864
210
-0
220
0
230
1
100
AcDbArc
50
-43.612968806384721
51
136.3870311936148
0
CIRCLE
5
298
100
AcDbEntity
8
0
100
AcDbCircle
10
0
20
0
30
0
40
37
210
0
220
0
230
1
0
ENDSEC
0
SECTION
2
OBJECTS
0
DICTIONARY
5
C
100
AcDbDictionary
3
ACAD_GROUP
350
D
3
ACAD_MLINESTYLE
350
17
0
DICTIONARY
5
D
100
AcDbDictionary
0
DICTIONARY
5
1A
330
C
100
AcDbDictionary
0
DICTIONARY
5
17
100
AcDbDictionary
0
ENDSEC
0
EOF
